<svg xmlns="http://www.w3.org/2000/svg" width="48" height="48" fill="none"><path fill="#333" d="M0 24C0 10.745 10.745 0 24 0s24 10.745 24 24-10.745 24-24 24S0 37.255 0 24Z"/><path fill="#0ACF83" d="M19.2 38.4a4.8 4.8 0 0 0 4.8-4.8v-4.8h-4.8a4.8 4.8 0 0 0 0 9.6Z"/><path fill="#A259FF" d="M14.4 24a4.8 4.8 0 0 1 4.8-4.8H24v9.6h-4.8a4.8 4.8 0 0 1-4.8-4.8Z"/><path fill="#F24E1E" d="M14.4 14.4a4.8 4.8 0 0 1 4.8-4.8H24v9.6h-4.8a4.8 4.8 0 0 1-4.8-4.8Z"/><path fill="#FF7262" d="M24 9.6h4.8a4.8 4.8 0 1 1 0 9.6H24V9.6Z"/><path fill="#1ABCFE" d="M33.6 24a4.8 4.8 0 1 1-9.6 0 4.8 4.8 0 0 1 9.6 0Z"/></svg>