<svg xmlns="http://www.w3.org/2000/svg" width="48" height="48" fill="none"><path fill="#fff" d="M0 24C0 10.745 10.745 0 24 0s24 10.745 24 24-10.745 24-24 24S0 37.255 0 24Z"/><path fill="#E44D26" d="M13.517 37.121 11.2 11.2h25.46l-2.319 25.917L23.915 40l-10.398-2.879Z"/><path fill="#F16529" d="m23.93 37.704 8.448-2.324 1.987-22.093H23.93v24.417Z"/><path fill="#EBEBEB" d="M23.93 22.843h-4.185l-.289-3.251h4.474v-3.175H16l.076.852.777 8.748h7.077v-3.174zm0 8.377-.013.004-3.498-.969-.223-2.568h-3.152l.44 5.056 6.432 1.831.014-.004v-3.35z"/><path fill="#fff" d="M23.93 22.887v3.212h3.87l-.365 4.166-3.505.967v3.342l6.442-1.825.048-.543.738-8.457.077-.862H23.93zm0-6.47V19.548H31.577l.064-.704.144-1.587.076-.84h-7.93z"/></svg>