<svg xmlns="http://www.w3.org/2000/svg" xmlns:xlink="http://www.w3.org/1999/xlink" id="Layer_1" x="0px" y="0px" viewBox="0 0 150 150" style="enable-background:new 0 0 150 150;" xml:space="preserve"><style type="text/css">	.st0{fill:url(#SVGID_1_);}	.st1{fill:url(#SVGID_2_);}	.st2{fill:url(#SVGID_3_);}	.st3{fill:url(#SVGID_4_);}	.st4{fill:url(#SVGID_5_);}	.st5{fill:url(#SVGID_6_);}	.st6{fill:#18488C;}	.st7{fill:#51BCEB;}	.st8{fill:none;}</style><g>			<linearGradient id="SVGID_1_" gradientUnits="userSpaceOnUse" x1="86.7635" y1="117.4088" x2="149.9192" y2="117.4088" gradientTransform="matrix(1 0 0 -1 0 152)">		<stop offset="0" style="stop-color:#359FD9"></stop>		<stop offset="1" style="stop-color:#18488C"></stop>	</linearGradient>	<polygon class="st0" points="147.12,2.23 101.8,66.95 82.4,2.23  "></polygon>			<linearGradient id="SVGID_2_" gradientUnits="userSpaceOnUse" x1="108.8368" y1="53.8686" x2="50.7868" y2="99.8148" gradientTransform="matrix(1 0 0 -1 0 152)">		<stop offset="0" style="stop-color:#359FD9"></stop>		<stop offset="1" style="stop-color:#18488C"></stop>	</linearGradient>	<polygon class="st1" points="119.14,131.67 37.08,66.95 101.8,66.95  "></polygon>			<linearGradient id="SVGID_3_" gradientUnits="userSpaceOnUse" x1="102.7939" y1="83.0289" x2="106.1978" y2="18.7395" gradientTransform="matrix(1 0 0 -1 0 152)">		<stop offset="0" style="stop-color:#359FD9"></stop>		<stop offset="1" style="stop-color:#18488C"></stop>	</linearGradient>	<polygon class="st2" points="123.46,147.77 123.17,147.77 89.05,120.85 101.8,66.95  "></polygon>			<linearGradient id="SVGID_4_" gradientUnits="userSpaceOnUse" x1="20.6133" y1="97.5763" x2="45.5736" y2="131.8017" gradientTransform="matrix(1 0 0 -1 0 152)">		<stop offset="0" style="stop-color:#359FD9"></stop>		<stop offset="1" style="stop-color:#18488C"></stop>	</linearGradient>	<polygon class="st3" points="56.6,39.07 29.75,42.47 2.88,45.86 22.4,17.98  "></polygon>			<linearGradient id="SVGID_5_" gradientUnits="userSpaceOnUse" x1="14.2709" y1="120.0474" x2="57.1934" y2="92.8195" gradientTransform="matrix(1 0 0 -1 0 152)">		<stop offset="0" style="stop-color:#359FD9"></stop>		<stop offset="1" style="stop-color:#18488C"></stop>	</linearGradient>	<polygon class="st4" points="101.8,66.95 37.08,66.95 22.4,17.98 56.6,39.07  "></polygon>			<linearGradient id="SVGID_6_" gradientUnits="userSpaceOnUse" x1="69.4399" y1="85.4404" x2="69.4399" y2="149.7332" gradientTransform="matrix(1 0 0 -1 0 152)">		<stop offset="0" style="stop-color:#359FD9"></stop>		<stop offset="1" style="stop-color:#18488C"></stop>	</linearGradient>	<polygon class="st5" points="101.8,66.95 37.08,66.95 82.4,2.23  "></polygon>	<polygon class="st6" points="22.4,17.98 29.74,42.47 28.39,42.57  "></polygon>	<polygon class="st6" points="37.08,66.95 56.6,39.08 55.45,38.36  "></polygon>	<polygon class="st7" points="101.8,66.95 84.52,2.23 82.4,2.23  "></polygon>	<polygon class="st6" points="91.63,109.97 90.25,108.88 101.8,66.95  "></polygon>	<rect class="st8" width="150" height="150"></rect></g></svg>