<svg xmlns="http://www.w3.org/2000/svg" width="48" height="48" fill="none"><path fill="#fff" d="M0 24C0 10.745 10.745 0 24 0s24 10.745 24 24-10.745 24-24 24S0 37.255 0 24Z"/><path fill="#3E3D3A" d="M12 24.182c0 4.846 2.938 9.034 7.2 11.018l-6.094-16A11.766 11.766 0 0 0 12 24.182zm19.997-.418c0-1.532-.54-2.592-1.004-3.417-.617-1.02-1.196-1.884-1.196-2.905 0-1.14.849-2.2 2.045-2.2.054 0 .105.007.158.01A12.021 12.021 0 0 0 23.776 12c-4.255 0-7.998 2.22-10.176 5.584.286.01.555.015.784.015 1.273 0 3.246-.157 3.246-.157.656-.04.733.942.078 1.02 0 0-.66.079-1.394.118L20.749 32l2.665-8.131-1.897-5.289c-.656-.039-1.278-.117-1.278-.117-.656-.04-.579-1.06.078-1.021 0 0 2.01.157 3.207.157 1.274 0 3.246-.157 3.246-.157.657-.04.734.942.078 1.02 0 0-.66.079-1.394.118l4.402 13.318 1.215-4.129c.525-1.714.926-2.945.926-4.005z"/><path fill="#3E3D3A" d="M24.315 24.8 20.8 35.5a11.219 11.219 0 0 0 7.2-.196 1.16 1.16 0 0 1-.084-.169l-3.6-10.335zm10.909-6.4c.055.398.086.825.086 1.285 0 1.268-.245 2.694-.979 4.477L30.4 35.2c3.827-2.167 6.4-6.192 6.4-10.804 0-2.173-.572-4.216-1.576-5.996z"/><path fill="#3E3D3A" fill-rule="evenodd" d="M9.6 24c0-7.94 6.46-14.4 14.4-14.4S38.4 16.06 38.4 24 31.94 38.4 24 38.4 9.6 31.94 9.6 24Zm.66 0c0 7.576 6.164 13.74 13.74 13.74 7.576 0 13.74-6.164 13.74-13.74 0-7.576-6.164-13.74-13.74-13.74-7.576 0-13.74 6.164-13.74 13.74Z" clip-rule="evenodd"/></svg>