<svg xmlns="http://www.w3.org/2000/svg" width="48" height="48" fill="none"><path fill="#FF2BC2" d="M0 24C0 10.745 10.745 0 24 0s24 10.745 24 24-10.745 24-24 24S0 37.255 0 24Z"/><path fill="url(#a)" d="M2.4 24C2.4 12.07 12.07 2.4 24 2.4c11.93 0 21.6 9.67 21.6 21.6 0 11.93-9.67 21.6-21.6 21.6-11.93 0-21.6-9.67-21.6-21.6Z"/><path fill="#FED7F0" fill-rule="evenodd" d="m24.706 32.506-4.55-8.824 4.29-8.238c.082-.147.033-.244-.097-.244h-2.616c-.16 0-.21.08-.29.206l-.003.005c-.269.578-.542 1.158-.815 1.74a205.267 205.267 0 0 0-2.159 4.695h-.032c-.717-1.601-1.47-3.176-2.224-4.757-.272-.569-.544-1.138-.815-1.71-.049-.146-.13-.179-.292-.179h-2.795c-.114 0-.211.114-.114.244l4.306 8.515-4.452 8.563c-.082.098-.065.228.097.228h2.698c.13 0 .21-.049.292-.179 1.04-2.145 2.113-4.517 3.088-6.695h.032a702.023 702.023 0 0 0 3.185 6.679c.081.162.163.211.341.211h2.828c.13 0 .179-.13.097-.26Zm.992-6.191c0-3.786 2.437-6.744 6.434-6.744.342 0 .52 0 .846.033v-4.225c0-.098.08-.163.162-.163h2.616c.13 0 .163.049.163.13V30.2c0 .438 0 .99.081 1.592 0 .114 0 .13-.097.179a9.68 9.68 0 0 1-4.16.942c-3.527 0-6.045-2.177-6.045-6.597Zm7.28-4.16c-.244-.114-.553-.163-.943-.163-2.047 0-3.412 1.577-3.412 4.193 0 2.99 1.397 4.192 3.217 4.192.39 0 .813-.048 1.121-.178v-8.044h.017Z" clip-rule="evenodd"/><defs><radialGradient id="a" cx="0" cy="0" r="1" gradientTransform="translate(19.623 16.79) scale(28.1648)" gradientUnits="userSpaceOnUse"><stop stop-color="#0E0E17" stop-opacity=".85"/><stop offset=".767" stop-color="#0E0E17"/></radialGradient></defs></svg>